<?xml version="1.0"?>
<svg xmlns="http://www.w3.org/2000/svg" id="Solid" height="512px" viewBox="0 0 512 512" width="512px"><g><path d="m214.777 400-13.333 80h109.112l-13.333-80z" data-original="#000000" class="active-path" data-old_color="#000000" fill="#3E4349"/><path d="m300.645 252.359-41.972-9.686 9.686 41.972a23.893 23.893 0 0 0 17.565 17.886l21.852 5.463 16.218-16.218-5.463-21.852a23.893 23.893 0 0 0 -17.886-17.565z" data-original="#000000" class="active-path" data-old_color="#000000" fill="#3E4349"/><path d="m336.167 304.17h16v47.998h-16z" transform="matrix(.707 -.707 .707 .707 -131.246 339.481)" data-original="#000000" class="active-path" data-old_color="#000000" fill="#3E4349"/><path d="m366.794 362.11 96.165 96.165a8 8 0 0 0 11.314-11.314l-96.165-96.161z" data-original="#000000" class="active-path" data-old_color="#000000" fill="#3E4349"/><path d="m96 160h80v80h-80z" data-original="#000000" class="active-path" data-old_color="#000000" fill="#3E4349"/><path d="m32 304h228.315a40 40 0 0 1 -7.546-15.758l-12.564-54.442a8 8 0 0 1 9.594-9.594l54.443 12.564a39.825 39.825 0 0 1 29.812 29.274l6.024 24.1 13.861 13.856h126.061v-208h-448zm88-16h-16a8 8 0 0 1 0-16h16a8 8 0 0 1 0 16zm48 0h-16a8 8 0 0 1 0-16h16a8 8 0 0 1 0 16zm56-8a8 8 0 0 1 -8 8h-16a8 8 0 0 1 0-16h8v-8a8 8 0 0 1 16 0zm0-48a8 8 0 0 1 -16 0v-16a8 8 0 0 1 16 0zm0-48a8 8 0 0 1 -16 0v-16a8 8 0 0 1 16 0zm232 56h-112a8 8 0 0 1 0-16h112a8 8 0 0 1 0 16zm0-32h-128a8 8 0 0 1 0-16h128a8 8 0 0 1 0 16zm-216-88a8 8 0 0 1 8-8h208a8 8 0 0 1 8 8v48a8 8 0 0 1 -8 8h-208a8 8 0 0 1 -8-8zm8 72h48a8 8 0 0 1 0 16h-48a8 8 0 0 1 0-16zm-48-80h16a8 8 0 0 1 8 8v16a8 8 0 0 1 -16 0v-8h-8a8 8 0 0 1 0-16zm-48 0h16a8 8 0 0 1 0 16h-16a8 8 0 0 1 0-16zm-48 0h16a8 8 0 0 1 0 16h-16a8 8 0 0 1 0-16zm-16 32h96a8 8 0 0 1 8 8v96a8 8 0 0 1 -8 8h-96a8 8 0 0 1 -8-8v-96a8 8 0 0 1 8-8zm-40-24a8 8 0 0 1 8-8h16a8 8 0 0 1 0 16h-8v8a8 8 0 0 1 -16 0zm0 48a8 8 0 0 1 16 0v16a8 8 0 0 1 -16 0zm0 48a8 8 0 0 1 16 0v16a8 8 0 0 1 -16 0zm0 48a8 8 0 0 1 16 0v8h8a8 8 0 0 1 0 16h-16a8 8 0 0 1 -8-8z" data-original="#000000" class="active-path" data-old_color="#000000" fill="#3E4349"/><path d="m433.939 384h38.061a8.009 8.009 0 0 0 8-8v-56h-110.061z" data-original="#000000" class="active-path" data-old_color="#000000" fill="#3E4349"/><path d="m472 32h-432a8.009 8.009 0 0 0 -8 8v40h448v-40a8.009 8.009 0 0 0 -8-8zm-416 32a8 8 0 1 1 8-8 8 8 0 0 1 -8 8zm32 0a8 8 0 1 1 8-8 8 8 0 0 1 -8 8zm32 0a8 8 0 1 1 8-8 8 8 0 0 1 -8 8z" data-original="#000000" class="active-path" data-old_color="#000000" fill="#3E4349"/><path d="m256 128h192v32h-192z" data-original="#000000" class="active-path" data-old_color="#000000" fill="#3E4349"/><path d="m289.828 320h-257.828v56a8.009 8.009 0 0 0 8 8h326.057l-59.923-59.924zm-17.828 32h-32a8 8 0 0 1 0-16h32a8 8 0 0 1 0 16z" data-original="#000000" class="active-path" data-old_color="#000000" fill="#3E4349"/></g> </svg>
